<svg xmlns="http://www.w3.org/2000/svg" viewBox="0 0 256 256"><rect width="256" height="256" rx="48" fill="#1C252D"/><rect x="42" y="54" width="126" height="135" rx="10" fill="#CC403B"/><rect x="42" y="54" width="126" height="28" rx="10" fill="#E8E8E4"/><rect x="56" y="91" width="98" height="28" rx="6" fill="#D84A44"/><rect x="56" y="124" width="98" height="22" rx="6" fill="#D84A44"/><rect x="56" y="151" width="98" height="22" rx="6" fill="#D84A44"/><path d="M105 96v19M95 106h20" stroke="#F6F3EC" stroke-width="7" stroke-linecap="round"/><circle cx="67" cy="196" r="13" fill="#66717B"/><circle cx="145" cy="196" r="13" fill="#66717B"/><rect x="150" y="105" width="67" height="103" rx="13" fill="#F5F3EE"/><rect x="150" y="105" width="67" height="17" rx="13" fill="#39444E"/><g fill="#C93F39"><rect x="162" y="136" width="18" height="18" rx="5"/><rect x="162" y="164" width="18" height="18" rx="5"/></g><path d="M167 145l5 5 9-11M167 173l5 5 9-11" fill="none" stroke="#fff" stroke-width="4" stroke-linecap="round" stroke-linejoin="round"/><g stroke="#BCC4C8" stroke-width="6" stroke-linecap="round"><path d="M188 141h18"/><path d="M188 151h14"/><path d="M188 169h18"/><path d="M188 179h14"/></g></svg>